<svg xmlns="http://www.w3.org/2000/svg" viewBox="0 0 256 256" width="256" height="256" fill="none">
    <defs>
        <linearGradient id="g" x1="48" y1="176" x2="208" y2="176" gradientUnits="userSpaceOnUse">
            <stop offset="0" stop-color="#4F7CFF"/>
            <stop offset="1" stop-color="#45D5FF"/>
        </linearGradient>
        <filter id="s" x="-20%" y="-20%" width="140%" height="140%">
            <feDropShadow dx="0" dy="8" stdDeviation="10" flood-color="#000000" flood-opacity="0.25"/>
        </filter>
    </defs>

    <path filter="url(#s)" d="M84 188c-27.6 0-50-20.7-50-46.2 0-21.6 16.7-39.8 39.3-44.7C78.5 73.1 99.7 56 126 56c31.5 0 57.6 24.6 59.8 55.7 20.7 3.8 36.2 20.5 36.2 40.1 0 20.8-17.9 36.2-40.5 36.2H84z" fill="#FFFFFF"/>

    <path d="M61 188h134.5c20 0 36.5-13.9 36.5-32.2 0-17.3-14-32-33.2-35.4-2.2-.4-3.8-2.2-4-4.4C193.5 89.4 171.4 68 145 68c-21.9 0-40.7 14.1-47.3 34.9-.7 2.2-2.9 3.6-5.2 3.2-18.3-3-35.5 10.5-35.5 29.7C57 163.6 77.6 188 61 188z" fill="url(#g)" opacity="0.9"/>

    <path d="M70 138h33l10-22 17 50 18-52 11 34h27" stroke="#0B1220" stroke-width="14" stroke-linecap="round" stroke-linejoin="round" opacity="0.95"/>
    <path d="M70 138h33l10-22 17 50 18-52 11 34h27" stroke="#FFFFFF" stroke-width="8" stroke-linecap="round" stroke-linejoin="round"/>
</svg>